<svg xmlns="http://www.w3.org/2000/svg" viewBox="0 0 500 500"><g id="freepik--Lines--inject-2"><g style="opacity:0.1"><path d="M134.31,26.88V44.19H50V58.9H99.51V57H51.93V46.13h84.32V26.88a3,3,0,1,0-1.94,0Z"></path><path d="M33,105.64a3,3,0,1,0-4.06,2.76v37.49L59.55,172h41.88V170H60.88V122.5a3,3,0,1,0-1.94.26V168.9L45.55,157.5V115.67a3,3,0,1,0-1.94,0v40.18L30.86,145V108.48A3,3,0,0,0,33,105.64Z"></path><path d="M30.13,186.66H99.51v-1.94H30.13a3,3,0,1,0,0,1.94Z"></path><path d="M32.13,355.64V251.22l47.36-50.51h22.58v-1.94H78.65L30.19,250.46v105a3,3,0,1,0,1.94.2Z"></path><path d="M43,356.21V256.32L79.5,216h22.57V214.1H78.64L41.05,255.58V356.21a3,3,0,0,0,0,5.6V362H43v-.17a3,3,0,0,0,0-5.6Z"></path><path d="M103.65,414.35v-67h-11a3,3,0,0,0-5.77,0H69.74V266h47.48V264H67.8v85.28H87a3,3,0,0,0,5.38,0h9.3v38.76H53.26v49.53a3,3,0,1,0,1.94,0V390h46.51v24.33a3,3,0,1,0,1.94,0Z"></path><path d="M268.39,354.27V306.68h-1.94v47.59a3,3,0,1,0,1.94,0Z"></path><path d="M285.83,354.14V306.68H283.9v47.85a3,3,0,1,0,1.93-.39Z"></path><path d="M472.86,99.79a3,3,0,1,0,.25-1.93H441.94l-21.8,21.79h-.58v.58L398.82,141H369.17V42.13h69.77V61.51h34a3,3,0,1,0,.12-1.94H440.88V40.19H367.23V50.85h-30V28.64a3,3,0,1,0-1.93,0V52.79h32v90.12h29.66l-23.27,23.27H233.89L205.8,138.09H79.4V64.63H36V36.55h65.84a3,3,0,1,0-.19-1.94H34v32H77.46V100.4H66.06L48.17,82.52H25.78a3,3,0,1,0-.2,1.93H47.37l17.89,17.89h12.2V140H205l28.09,28.09H452.51v40.69h-42a3,3,0,1,0,.37,1.93h41.65V235H410.73a3,3,0,1,0,0,1.94h41.78V270.6a3,3,0,0,0-2.62,2.16H410.84v48.46h1.94V274.7H450a3,3,0,1,0,4.44-3.58V166.18H376.36l23.27-23.27H473a3,3,0,1,0,0-1.94H401.56L421,121.59H473a3,3,0,1,0-.12-1.94h-50l19.86-19.86Z"></path><path d="M160.83,349.32H138.54v30.15a3,3,0,1,0,1.94,0V351.26h22.28V304.74h-1.93Z"></path><path d="M467.05,165.2a6.79,6.79,0,1,0,6.78,6.78A6.79,6.79,0,0,0,467.05,165.2Zm0,11.63a4.85,4.85,0,1,1,4.84-4.85A4.86,4.86,0,0,1,467.05,176.83Z"></path><path d="M69.74,243.69a6.78,6.78,0,1,0,6.78-6.78A6.79,6.79,0,0,0,69.74,243.69Zm11.62,0a4.85,4.85,0,1,1-4.84-4.84A4.85,4.85,0,0,1,81.36,243.69Z"></path><path d="M171.49,38.25a6.78,6.78,0,1,0-6.79-6.78A6.79,6.79,0,0,0,171.49,38.25Zm0-11.63a4.85,4.85,0,1,1-4.85,4.85A4.85,4.85,0,0,1,171.49,26.62Z"></path><path d="M210.25,38.25a6.78,6.78,0,1,0-6.79-6.78A6.79,6.79,0,0,0,210.25,38.25Zm0-11.63a4.85,4.85,0,1,1-4.85,4.85A4.85,4.85,0,0,1,210.25,26.62Z"></path><path d="M78.46,428.78a6.79,6.79,0,1,0,6.78,6.78A6.79,6.79,0,0,0,78.46,428.78Zm0,11.63a4.85,4.85,0,1,1,4.84-4.85A4.85,4.85,0,0,1,78.46,440.41Z"></path><path d="M122.06,346.41a6.79,6.79,0,1,0,6.79,6.78A6.79,6.79,0,0,0,122.06,346.41Zm0,11.63a4.85,4.85,0,1,1,4.85-4.85A4.85,4.85,0,0,1,122.06,358Z"></path><path d="M467.05,250.48a6.78,6.78,0,1,0,6.78,6.78A6.79,6.79,0,0,0,467.05,250.48Zm0,11.62a4.85,4.85,0,1,1,4.84-4.84A4.85,4.85,0,0,1,467.05,262.1Z"></path></g></g></svg>